<svg width="16" height="16" viewBox="0 0 16 16" fill="none" xmlns="http://www.w3.org/2000/svg">
<path fill-rule="evenodd" clip-rule="evenodd" d="M10.57 1.14L13.85 4.44L14 4.8V14.5L13.5 15H2.5L2 14.5V1.5L2.5 1H10.22L10.57 1.14ZM10 5H13L10 2V5ZM3 2V14H13V6H9.5L9 5.5V2H3ZM3.5 7.5V12.5H5.75C6.75 12.5 7.25 11.75 7.25 11C7.25 10.45 6.9 10.05 6.25 9.85C6.75 9.65 7 9.2 7 8.7C7 7.95 6.5 7.5 5.75 7.5H3.5ZM4.75 8.35H5.5C5.85 8.35 6 8.55 6 8.75C6 8.95 5.85 9.15 5.5 9.15H4.75V8.35ZM4.75 10.45H5.5C5.95 10.45 6.15 10.7 6.15 11C6.15 11.3 5.95 11.55 5.5 11.55H4.75V10.45ZM8 7.5V12.5H9.25V10.35H9.75L11.15 12.5H12.6L10.95 10.1C11.5 9.8 11.75 9.2 11.75 8.65C11.75 7.9 11.15 7.5 10.25 7.5H8ZM9.25 8.35H10.1C10.5 8.35 10.7 8.55 10.7 8.8C10.7 9.05 10.5 9.3 10.1 9.3H9.25V8.35Z" fill="#424242"/>
</svg>
